<?xml version="1.0" standalone="no"?><!DOCTYPE svg PUBLIC "-//W3C//DTD SVG 1.1//EN" "http://www.w3.org/Graphics/SVG/1.1/DTD/svg11.dtd"><svg t="1546496461037" class="icon" style="" viewBox="0 0 1024 1024" version="1.1" xmlns="http://www.w3.org/2000/svg" p-id="14054" xmlns:xlink="http://www.w3.org/1999/xlink" width="200" height="200"><defs><style type="text/css"></style></defs><path d="M304.92672 756.31616c0-9.07264 0.65536-17.82784 1.61792-26.54208 1.97632-14.8992 5.19168-29.17376 10.09664-42.3936a207.52384 207.52384 0 0 1 32.13312-58.624c9.46176-11.96032 19.80416-23.04 31.5392-32.33792 36.01408-29.4912 81.82784-47.2576 131.91168-47.2576 49.70496 0 95.7952 17.8176 131.55328 47.2576 11.66336 9.4208 22.07744 20.35712 31.5392 32.33792a205.60896 205.60896 0 0 1 32.13312 58.624c4.864 13.25056 8.1408 27.52512 10.09664 42.3936 0.96256 8.71424 1.61792 17.52064 1.61792 26.54208H304.92672z m86.35392-377.18016c0-66.70336 54.21056-120.80128 120.87296-120.80128 66.54976 0 120.51456 54.03648 120.51456 120.80128 0 66.32448-53.93408 120.46336-120.5248 120.46336-66.54976 0-120.86272-54.02624-120.86272-120.46336z m360.5504 308.25472h210.8416c0-82.90304-66.92864-149.9136-149.74976-149.9136-45.81376 0-87.04 20.69504-114.2784 53.12512a266.73152 266.73152 0 0 0-30.86336-29.17376c-22.07744-17.52064-47.09376-31.71328-74.0352-41.10336 48.6912-28.14976 81.5616-80.9472 81.5616-141.1584 0-89.96864-73.37984-163.19488-163.08224-163.19488-90.0096 0-163.42016 73.13408-163.42016 163.19488 0 60.23168 32.768 113.01888 81.5616 141.1584-26.96192 9.43104-51.94752 23.62368-74.04544 41.10336a255.0784 255.0784 0 0 0-30.85312 29.17376c-27.61728-32.33792-68.52608-53.12512-114.2784-53.12512C128.28672 537.47712 61.44 604.48768 61.44 687.39072h210.83136a234.22976 234.22976 0 0 0-8.13056 42.3936 239.4624 239.4624 0 0 0-1.6384 26.54208A42.3936 42.3936 0 0 0 305.0496 798.72h414.17728a42.3936 42.3936 0 0 0 42.53696-42.3936c0-9.07264-0.6656-17.82784-1.29024-26.54208a259.60448 259.60448 0 0 0-8.42752-42.3936h-0.2048z m61.1328-360.02816c48.09728 0 87.02976 39.20896 87.02976 87.3984 0 47.93344-38.9632 87.0912-87.04 87.0912-48.05632 0-87.02976-39.2192-87.02976-87.0912 0-48.2304 38.97344-87.3984 87.04-87.3984z m-601.93792 0c48.09728 0 87.02976 39.20896 87.02976 87.3984 0 47.93344-38.9632 87.0912-87.04 87.0912-48.05632 0-87.02976-39.2192-87.02976-87.0912 0-48.2304 38.97344-87.3984 87.04-87.3984z" p-id="14055"></path></svg>