<?xml version="1.0" standalone="no"?><!DOCTYPE svg PUBLIC "-//W3C//DTD SVG 1.1//EN" "http://www.w3.org/Graphics/SVG/1.1/DTD/svg11.dtd"><svg t="1546496430094" class="icon" style="" viewBox="0 0 1450 1024" version="1.1" xmlns="http://www.w3.org/2000/svg" p-id="13555" xmlns:xlink="http://www.w3.org/1999/xlink" width="283.203125" height="200"><defs><style type="text/css"></style></defs><path d="M1360.571072 943.610179l-72.841281-182.103203c26.05739-17.997085 42.988297-46.997126 42.988297-79.536879 0-42.64712-29.000042-79.110408-69.472159-92.928075V387.23585a29.17063 29.17063 0 0 0-3.41177-13.647078 31.217692 31.217692 0 0 0 3.966183-8.955895c4.861772-17.997085-6.823539-36.377993-26.100038-40.941236L769.823164 214.259131c-19.233851-4.563242-38.851526 6.397068-43.713298 24.4368-4.861772 18.039732 6.823539 36.420641 26.100038 40.983882L1189.812003 382.544667a41.666236 41.666236 0 0 0-0.341177 4.861772v201.806172c-40.514764 13.817667-69.472159 50.238307-69.472159 92.928075 0 32.539753 16.930907 61.497147 43.030944 79.579526l-72.926575 182.103202c-7.164716 17.997085-4.477948 38.382408 7.250011 54.247137 11.685311 15.864729 31.132398 25.460331 51.81625 25.460331h152.761984c20.683853 0 39.960352-9.425014 51.816251-25.460331 11.514722-16.035317 14.244138-36.420641 6.82354-54.460372z m-135.319312-293.198951c18.551497 0 33.477989 13.988255 33.477989 31.388281 0 17.357378-14.926492 31.345633-33.477989 31.345633-18.50885 0-33.435342-13.988255-33.435343-31.345633 0-17.400025 15.097081-31.38828 33.435343-31.388281z m-63.330974 305.523968l63.330974-158.476698 63.37362 158.476698h-126.661947z" p-id="13556"></path><path d="M1449.874141 253.793012c-1.577943-26.569156-19.660322-48.447128-46.229478-56.294199L797.245263 5.458831a161.419349 161.419349 0 0 0-84.56924 0.341177L44.907417 174.938487c-26.014743 7.164716-43.585357 28.402982-44.822123 54.161842-1.279414 25.716213 14.07355 48.404481 39.235351 57.957436l172.294365 62.478031v341.262255c0 12.666195 7.036775 23.711799 17.783849 29.852984 1.236766 1.023531 2.302944 2.047062 3.710299 2.900004 35.525051 22.688268 102.139853 61.838324 191.485569 97.064845a1084.601558 1084.601558 0 0 0 237.587106 64.525093c30.620632 4.477948 61.198617 7.676482 91.648661 9.169131 56.464787 2.985298 112.375161 0.682354 167.04877-6.695598 18.466203-2.473533 31.132398-19.020616 27.805922-36.591229l-0.852942-4.350006c-3.198534-16.376494-19.532381-27.55004-36.975054-25.204448-183.76644 24.564741-348.896089-19.233851-457.390362-61.838324a1064.514764 1064.514764 0 0 1-171.48407-85.550123V375.294657l362.287285 131.481071a124.614885 124.614885 0 0 0 87.21336 0.341177l677.620091-191.485569c26.35592-10.36325 42.391237-34.586814 40.770647-61.838324z m-740.524593 189.651742l-2.132356 0.852943a50.750073 50.750073 0 0 1-36.761817 0.170588L88.194244 233.2371l643.971513-163.253176a88.620716 88.620716 0 0 1 44.864771-0.511765l592.667027 187.519387-660.348007 186.453208z" p-id="13557"></path></svg>