<?xml version="1.0" standalone="no"?><!DOCTYPE svg PUBLIC "-//W3C//DTD SVG 1.1//EN" "http://www.w3.org/Graphics/SVG/1.1/DTD/svg11.dtd"><svg t="1546496331463" class="icon" style="" viewBox="0 0 1024 1024" version="1.1" xmlns="http://www.w3.org/2000/svg" p-id="12021" xmlns:xlink="http://www.w3.org/1999/xlink" width="200" height="200"><defs><style type="text/css"></style></defs><path d="M524.316897 1010.656695 324.917383 1010.656695l44.727707-245.903697 1.618567 0.236863c26.883997 18.909596 91.034504 37.227033 113.260187 41.806392 24.239022 5.013609 53.333745 21.909865 53.333745 51.044065l0 13.106442L524.316897 1010.656695zM29.114461 1010.656695l-13.501214-139.709935L15.613246 857.840318c0-29.213154 29.055245-46.030456 53.373222-51.044065 22.225683-4.539882 86.37619-22.896796 113.260187-41.806392l1.618567-0.236863 44.648753 245.903697L29.114461 1010.656695zM276.755156 777.819962l35.055785 1.065885-19.857049 40.029916 24.475886 191.740931L237.120012 1010.656695l24.475886-191.740931L241.699372 778.885848 276.755156 777.819962zM370.51359 634.280736C355.630672 686.90389 314.929643 725.196808 276.399861 727.091715c-38.68769-1.934385-79.507151-40.464166-94.311115-93.284706l-7.342766 1.14484c-8.211265 1.223794-15.98828-4.500405-17.291029-12.909056l-7.184857-46.780524c-1.263272-8.408651 4.42145-16.343575 12.672192-17.606847l5.171518-0.829022c-2.329157-7.342766-3.552951-15.119781-3.552951-23.212614l0-17.251552c0-42.12221 33.910945-76.585836 75.322564-76.585836l9.040287 0c-0.157909-1.42118 0.039477-2.842361 0.513204-4.105632 4.658314-12.395852 35.568989-12.040557 69.045684 0.829022 7.14538 2.763406 13.777555 5.842631 19.857049 9.119241 27.199815 11.527353 46.504183 38.924554 46.504183 70.703728l0 17.251552c0 8.092833-1.223794 15.869848-3.552951 23.212614l5.171518 0.829022c8.250742 1.263272 13.974941 9.198196 12.672192 17.606847l-7.184857 46.780524c-1.263272 8.408651-9.040287 14.13285-17.291029 12.909056L370.51359 634.280736zM210.393924 267.734608c0 49.346544 19.896526 94.390069 52.741586 129.051081C260.214195 385.139905 258.635105 373.020394 258.635105 360.545588c0-84.52076 72.24334-152.974286 161.382937-152.974286 2.960793 0 5.961062 0.078954 8.921855 0.236863l0 67.1113 132.248737-132.288215-132.248737-132.248737 0 59.571148-0.513204 0C308.021126 69.993138 210.393924 158.540576 210.393924 267.734608M1004.044258 587.934462 508.841821 587.934462l-13.501214-139.709935 0-13.106442c0-29.213154 29.41054-55.899765 53.373222-62.295077 114.089209-30.436948 149.34238-19.69914 148.63179-98.614133-15.632985-16.264621-28.463086-38.095532-35.490034-63.163576l-7.303288 1.14484c-8.250742 1.302749-16.027757-4.460928-17.330506-12.869579l-7.184857-46.741046c-1.263272-8.408651 4.42145-16.343575 12.672192-17.646324l5.171518-0.829022c-2.329157-7.342766-3.552951-15.119781-3.552951-23.252091L644.327692 93.718956c0-42.12221 33.910945-76.546359 75.362042-76.546359l9.040287 0c-0.157909-1.460658 0.078954-2.842361 0.513204-4.105632 4.658314-12.435329 35.568989-12.080034 69.045684 0.829022 7.14538 2.723929 13.817032 5.803154 19.857049 9.119241 27.160338 11.56683 46.504183 38.924554 46.504183 70.703728l0 17.212074c0 8.13231-1.184317 15.909326-3.592428 23.252091l5.250472 0.829022c8.211265 1.302749 13.895987 9.237673 12.632715 17.646324l-7.184857 46.741046c-1.263272 8.408651-9.079764 14.172327-17.291029 12.869579l-4.184587-0.671113c-6.237403 22.107252-17.093643 41.68796-30.357994 57.084082 9.671923 86.770963 18.98855 71.256409 144.289294 104.180423 24.002159 6.27688 53.452176 33.1214 53.452176 62.295077l0 13.106442L1004.044258 587.934462zM946.446972 762.779136c0-49.386021-19.896526-94.429546-52.741586-129.090559 2.921315 11.606307 4.539882 23.765296 4.539882 36.200625 0 84.52076-72.282817 153.013763-161.461891 153.013763-2.921315 0-5.882108-0.118432-8.882378-0.236863L727.900998 755.594279l-132.248737 132.248737 132.248737 132.248737 0-59.610625 0.513204 0C848.819769 960.481129 946.446972 871.933691 946.446972 762.779136" p-id="12022"></path></svg>